<svg width="24" height="24" viewBox="0 0 24 24" fill="none" xmlns="http://www.w3.org/2000/svg">
<mask id="mask0_21550_50467" style="mask-type:alpha" maskUnits="userSpaceOnUse" x="0" y="0" width="24" height="24">
<rect width="24" height="24" fill="#D9D9D9"/>
</mask>
<g mask="url(#mask0_21550_50467)">
<path d="M5.76184 10.3231C5.48256 10.3314 5.25256 10.4234 5.07185 10.5992C4.89114 10.775 4.80078 10.9987 4.80078 11.2704C4.80078 11.542 4.89114 11.7658 5.07185 11.9415L11.5775 18.2696C11.676 18.3655 11.7828 18.4336 11.8978 18.4739C12.0128 18.5135 12.136 18.5333 12.2674 18.5333C12.3989 18.5333 12.5264 18.5135 12.6499 18.4739C12.7728 18.4336 12.8753 18.3655 12.9574 18.2696L19.463 11.9415C19.6438 11.7658 19.7341 11.542 19.7341 11.2704C19.7341 10.9987 19.6438 10.775 19.463 10.5992C19.2823 10.4234 19.0523 10.3314 18.7731 10.3231C18.4938 10.3154 18.2638 10.3995 18.0831 10.5753L13.2531 15.2734V4.55878C13.2531 4.28712 13.1588 4.05924 12.9703 3.87515C12.781 3.6917 12.5467 3.59998 12.2674 3.59998C11.9882 3.59998 11.7542 3.6917 11.5656 3.87515C11.3764 4.05924 11.2817 4.28712 11.2817 4.55878V15.2734L6.45183 10.5753C6.27112 10.3995 6.04112 10.3154 5.76184 10.3231Z" fill="#171719"/>
<path d="M6.66745 18.8C6.22562 18.8 5.86745 19.1581 5.86745 19.6C5.86745 20.0418 6.22562 20.4 6.66745 20.4H17.8674C18.3093 20.4 18.6674 20.0418 18.6674 19.6C18.6674 19.1581 18.3093 18.8 17.8674 18.8H6.66745Z" fill="#171719"/>
</g>
</svg>
