<svg width="24" height="24" viewBox="0 0 24 24" fill="none" xmlns="http://www.w3.org/2000/svg">
<g clip-path="url(#clip0_21550_50465)">
<path d="M18.3 8.44444H5.7C4.206 8.44444 3 9.63556 3 11.1111V16.4444H6.6V20H17.4V16.4444H21V11.1111C21 9.63556 19.794 8.44444 18.3 8.44444ZM15.6 18.2222H8.4V13.7778H15.6V18.2222ZM18.3 12C17.805 12 17.4 11.6 17.4 11.1111C17.4 10.6222 17.805 10.2222 18.3 10.2222C18.795 10.2222 19.2 10.6222 19.2 11.1111C19.2 11.6 18.795 12 18.3 12ZM17.4 4H6.6V7.55556H17.4V4Z" fill="#171719"/>
</g>
<defs>
<clipPath id="clip0_21550_50465">
<rect width="24" height="24" fill="white"/>
</clipPath>
</defs>
</svg>
