<svg width="24" height="24" viewBox="0 0 24 24" fill="none" xmlns="http://www.w3.org/2000/svg">
<path d="M5 1C5 0.447715 5.44771 -1.95703e-08 6 -4.37114e-08L18 -5.68248e-07C18.5523 -5.92389e-07 19 0.447714 19 0.999999L19 15C19 15.2652 18.8946 15.5195 18.707 15.707C18.5195 15.8946 18.2652 16 18 16L6 16C5.44772 16 5 15.5523 5 15L5 1ZM17 14L17 2L7 2L7 14L17 14Z" fill="#171719"/>
<path d="M6.59277 19.625H17.4092V17L21 20.5L17.4092 24V21.375H6.59277V24L3.00195 20.5L6.59277 16.999V19.625Z" fill="#171719"/>
</svg>
