<svg width="24" height="24" viewBox="0 0 24 24" fill="none" xmlns="http://www.w3.org/2000/svg">
<path d="M22 -5.62003e-08L22 2L15 2L15 14L22 14L22 16L14 16C13.7348 16 13.4805 15.8946 13.293 15.707C13.1054 15.5195 13 15.2652 13 15L13 1C13 0.44772 13.4477 6.52852e-07 14 -6.24448e-09L22 -5.62003e-08Z" fill="#171719"/>
<path d="M2 16L2 14L9 14L9 2L2 2L2 -7.3763e-07L10 -8.19589e-08C10.2652 -6.0222e-08 10.5195 0.105433 10.707 0.292969C10.8946 0.480505 11 0.734784 11 1L11 15C11 15.5523 10.5523 16 10 16L2 16Z" fill="#171719"/>
<path d="M6.5918 19.625H17.4092V17L20.999 20.5L17.4092 24V21.375H6.5918V24L3.00195 20.5L6.5918 16.999V19.625Z" fill="#171719"/>
</svg>
