<svg width="457" height="118" viewBox="0 0 457 118" fill="none" xmlns="http://www.w3.org/2000/svg">
<g id="illust_step_length">
<line id="Line 2" x1="28" y1="45.5" x2="457" y2="45.5" stroke="#D1D1D1"/>
<line id="Line 3" x1="28" y1="72.5" x2="457" y2="72.5" stroke="#D1D1D1"/>
<line id="Line 4" x1="63.5" y1="2.18557e-08" x2="63.5" y2="118" stroke="#D1D1D1"/>
<line id="Line 6" x1="287.5" y1="2.18557e-08" x2="287.5" y2="96" stroke="#D1D1D1"/>
<line id="Line 7" x1="399.5" y1="22" x2="399.5" y2="118" stroke="#D1D1D1"/>
<line id="Line 5" x1="175.5" y1="22" x2="175.5" y2="118" stroke="#D1D1D1"/>
<path id="Arrow 1" d="M33 48L30.1132 53L35.8868 53L33 48ZM33 71L35.8868 66L30.1132 66L33 71ZM33 52.5L32.5 52.5L32.5 66.5L33 66.5L33.5 66.5L33.5 52.5L33 52.5Z" fill="#000047"/>
<g id="Frame 18">
<path id="Arrow 2" d="M300.5 89.5C300.776 89.5 301 89.2761 301 89C301 88.7239 300.776 88.5 300.5 88.5V89V89.5ZM288 89L293 91.8868V86.1132L288 89ZM300.5 89V88.5H292.5V89V89.5H300.5V89Z" fill="#0D3B80"/>
<path id="Text" d="M312.123 84.2109C312.858 84.2148 313.514 84.3301 314.092 84.5566C314.67 84.7832 315.121 85.1035 315.446 85.5176C315.77 85.9277 315.932 86.4023 315.932 86.9414C315.932 87.4492 315.789 87.9004 315.504 88.2949C315.223 88.6895 314.828 89.0039 314.321 89.2383C313.813 89.4727 313.229 89.6113 312.569 89.6543V91.8398H316.916V92.6133H307.377V91.8398H311.666V89.6543C311.01 89.6113 310.428 89.4727 309.92 89.2383C309.412 89 309.018 88.6855 308.737 88.2949C308.455 87.9004 308.315 87.4492 308.315 86.9414C308.315 86.4023 308.477 85.9277 308.801 85.5176C309.125 85.1035 309.576 84.7832 310.155 84.5566C310.733 84.3301 311.389 84.2148 312.123 84.2109ZM312.123 84.9727C311.565 84.9727 311.063 85.0566 310.617 85.2246C310.176 85.3887 309.83 85.6211 309.58 85.9219C309.33 86.2188 309.205 86.5586 309.205 86.9414C309.205 87.3359 309.33 87.6836 309.58 87.9844C309.83 88.2852 310.176 88.5176 310.617 88.6816C311.059 88.8457 311.561 88.9297 312.123 88.9336C312.686 88.9297 313.188 88.8457 313.629 88.6816C314.071 88.5176 314.416 88.2852 314.666 87.9844C314.916 87.6836 315.041 87.3359 315.041 86.9414C315.041 86.5586 314.916 86.2188 314.666 85.9219C314.416 85.6211 314.069 85.3887 313.623 85.2246C313.182 85.0566 312.682 84.9727 312.123 84.9727ZM326.916 90.0703H317.377V89.3086H326.916V90.0703ZM325.908 93.7266H318.642V90.8906H319.568V92.9531H325.908V93.7266ZM325.685 86.4609H319.533V87.6211H325.908V88.3477H318.619V85.7695H324.759V84.6328H318.584V83.8945H325.685V86.4609ZM330.575 84.8672C330.575 85.0586 330.638 85.2715 330.763 85.5059C330.892 85.7363 331.075 85.959 331.313 86.1738C331.552 86.3887 331.829 86.5664 332.145 86.707C332.462 86.5703 332.737 86.3984 332.972 86.1914C333.21 85.9805 333.392 85.7598 333.517 85.5293C333.642 85.2949 333.704 85.0742 333.704 84.8672V84.6797H332.345V83.918H336.27V84.6797H334.618V84.9141C334.618 85.1836 334.696 85.4551 334.852 85.7285C335.009 86.002 335.235 86.25 335.532 86.4727C335.833 86.6914 336.185 86.8594 336.587 86.9766L336.165 87.6562C335.669 87.5078 335.245 87.2793 334.894 86.9707C334.546 86.6621 334.288 86.3086 334.12 85.9102C333.94 86.2695 333.683 86.5918 333.347 86.877C333.011 87.1621 332.61 87.375 332.145 87.5156C331.673 87.3672 331.267 87.1484 330.927 86.8594C330.587 86.5664 330.329 86.2383 330.153 85.875C329.985 86.2695 329.726 86.627 329.374 86.9473C329.026 87.2637 328.606 87.5 328.114 87.6562L327.704 86.9766C328.091 86.8516 328.433 86.6719 328.729 86.4375C329.03 86.2031 329.261 85.9492 329.421 85.6758C329.581 85.4023 329.661 85.1484 329.661 84.9141V84.6797H328.009V83.918H331.935V84.6797H330.575V84.8672ZM336.927 89.4492H327.399V88.6992H331.688V87.6328H332.591V88.6992H336.927V89.4492ZM335.696 93.9492H334.77V91.3125H328.431V90.5625H335.696V93.9492ZM348.699 88.8867H347.773V86.8125H345.465V86.0508H347.773V83.5312H348.699V88.8867ZM345.382 84.0469C345.382 85.3164 344.961 86.3809 344.117 87.2402C343.273 88.0957 342.086 88.7188 340.554 89.1094L340.226 88.3477C341.054 88.1484 341.769 87.8789 342.371 87.5391C342.976 87.1953 343.451 86.793 343.795 86.332C344.138 85.8711 344.341 85.3633 344.404 84.8086H340.765V84.0469H345.382ZM348.699 91.875H342.886V93.0938H349.05V93.8555H341.972V91.1719H347.773V90.082H341.949V89.332H348.699V91.875ZM354.819 83.7656C355.573 83.7656 356.226 83.8438 356.776 84C357.331 84.1562 357.757 84.3828 358.054 84.6797C358.351 84.9766 358.499 85.332 358.499 85.7461C358.499 86.1523 358.351 86.502 358.054 86.7949C357.757 87.084 357.331 87.3066 356.776 87.4629C356.226 87.6152 355.573 87.6914 354.819 87.6914C354.065 87.6914 353.411 87.6152 352.856 87.4629C352.302 87.3066 351.874 87.084 351.573 86.7949C351.276 86.502 351.128 86.1523 351.128 85.7461C351.128 85.332 351.276 84.9766 351.573 84.6797C351.874 84.3828 352.302 84.1562 352.856 84C353.411 83.8438 354.065 83.7656 354.819 83.7656ZM354.819 84.5039C354.261 84.5039 353.774 84.5547 353.36 84.6562C352.946 84.7539 352.628 84.8965 352.405 85.084C352.183 85.2715 352.073 85.4922 352.077 85.7461C352.073 85.9961 352.181 86.2129 352.399 86.3965C352.622 86.5762 352.94 86.7148 353.355 86.8125C353.769 86.9102 354.257 86.9609 354.819 86.9648C355.374 86.9609 355.856 86.9102 356.267 86.8125C356.681 86.7148 356.999 86.5762 357.222 86.3965C357.448 86.2129 357.562 85.9961 357.562 85.7461C357.562 85.4922 357.448 85.2715 357.222 85.084C356.999 84.8965 356.681 84.7539 356.267 84.6562C355.853 84.5547 355.37 84.5039 354.819 84.5039ZM358.405 93.8086H351.233V90.3867H358.405V93.8086ZM352.147 93.0586H357.503V91.125H352.147V93.0586ZM359.565 89.3555H350.073V88.5938H359.565V89.3555ZM368.686 88.8633H367.772V83.5312H368.686V88.8633ZM365.569 84.0469C365.569 85.3477 365.135 86.4219 364.268 87.2695C363.405 88.1133 362.182 88.7188 360.6 89.0859L360.26 88.3125C361.565 88.0234 362.586 87.5781 363.325 86.9766C364.067 86.3711 364.479 85.6484 364.561 84.8086H360.787V84.0469H365.569ZM368.686 91.875H362.85V93.1172H369.061V93.8555H361.936V91.1719H367.772V90.0938H361.912V89.3555H368.686V91.875ZM378.685 93.9727H377.76V83.5312H378.685V93.9727ZM373.142 84.3398C373.658 84.3438 374.117 84.4961 374.519 84.7969C374.922 85.0938 375.236 85.5156 375.463 86.0625C375.689 86.6094 375.802 87.2461 375.802 87.9727C375.802 88.6992 375.689 89.3359 375.463 89.8828C375.236 90.4297 374.922 90.8516 374.519 91.1484C374.117 91.4453 373.658 91.5938 373.142 91.5938C372.627 91.5938 372.166 91.4453 371.76 91.1484C371.357 90.8516 371.043 90.4297 370.816 89.8828C370.594 89.3359 370.482 88.6992 370.482 87.9727C370.482 87.2461 370.594 86.6094 370.816 86.0625C371.043 85.5156 371.357 85.0938 371.76 84.7969C372.162 84.4961 372.623 84.3438 373.142 84.3398ZM373.142 85.1602C372.795 85.1641 372.486 85.2832 372.217 85.5176C371.951 85.748 371.744 86.0762 371.595 86.502C371.447 86.9238 371.373 87.4141 371.373 87.9727C371.373 88.5312 371.447 89.0234 371.595 89.4492C371.744 89.8711 371.953 90.1973 372.222 90.4277C372.492 90.6582 372.799 90.7734 373.142 90.7734C373.486 90.7734 373.793 90.6582 374.062 90.4277C374.332 90.1973 374.541 89.8711 374.689 89.4492C374.838 89.0234 374.912 88.5312 374.912 87.9727C374.912 87.4141 374.838 86.9238 374.689 86.502C374.541 86.0762 374.332 85.748 374.062 85.5176C373.797 85.2832 373.49 85.1641 373.142 85.1602Z" fill="#0D3B80"/>
<path id="Arrow 4" d="M386.5 89.5C386.224 89.5 386 89.2761 386 89C386 88.7239 386.224 88.5 386.5 88.5V89V89.5ZM399 89L394 91.8868V86.1132L399 89ZM386.5 89V88.5H394.5V89V89.5H386.5V89Z" fill="#0D3B80"/>
</g>
<g id="Frame 20">
<path id="Arrow 2_2" d="M193.5 29.5C193.776 29.5 194 29.2761 194 29C194 28.7239 193.776 28.5 193.5 28.5V29V29.5ZM176 29L181 31.8868V26.1132L176 29ZM193.5 29V28.5H180.5V29V29.5H193.5V29Z" fill="#F17676"/>
<path id="Text_2" d="M203.769 23.9531C204.281 23.9531 204.736 24.041 205.135 24.2168C205.533 24.3887 205.842 24.6328 206.06 24.9492C206.283 25.2656 206.394 25.6328 206.394 26.0508C206.394 26.4297 206.303 26.7695 206.119 27.0703C205.939 27.3711 205.685 27.6152 205.357 27.8027C205.029 27.9902 204.648 28.1094 204.215 28.1602V29.1094C205.297 29.0586 206.285 28.9805 207.18 28.875L207.25 29.5664C205.426 29.8242 203.199 29.9531 200.57 29.9531L200.43 29.1914C201.441 29.1914 202.398 29.1758 203.301 29.1445V28.1543C202.871 28.1035 202.492 27.9844 202.164 27.7969C201.836 27.6094 201.582 27.3652 201.402 27.0645C201.223 26.7637 201.133 26.4258 201.133 26.0508C201.133 25.6328 201.244 25.2656 201.467 24.9492C201.689 24.6328 202 24.3887 202.398 24.2168C202.797 24.041 203.254 23.9531 203.769 23.9531ZM203.769 24.6914C203.422 24.6875 203.113 24.7422 202.844 24.8555C202.574 24.9688 202.365 25.1309 202.217 25.3418C202.068 25.5488 201.996 25.7852 202 26.0508C201.996 26.3242 202.068 26.5664 202.217 26.7773C202.365 26.9883 202.574 27.1543 202.844 27.2754C203.113 27.3926 203.422 27.4531 203.769 27.457C204.105 27.4531 204.406 27.3926 204.672 27.2754C204.941 27.1543 205.15 26.9883 205.299 26.7773C205.451 26.5664 205.527 26.3242 205.527 26.0508C205.527 25.7852 205.451 25.5488 205.299 25.3418C205.15 25.1348 204.941 24.9746 204.672 24.8613C204.406 24.7441 204.105 24.6875 203.769 24.6914ZM208.973 31.3359H208.047V23.543H208.973V31.3359ZM209.301 33.7266H202.152V30.7617H203.066V32.9531H209.301V33.7266ZM213.57 24.8672C213.57 25.0586 213.632 25.2715 213.757 25.5059C213.886 25.7363 214.07 25.959 214.308 26.1738C214.546 26.3887 214.824 26.5664 215.14 26.707C215.456 26.5703 215.732 26.3984 215.966 26.1914C216.204 25.9805 216.386 25.7598 216.511 25.5293C216.636 25.2949 216.699 25.0742 216.699 24.8672V24.6797H215.339V23.918H219.265V24.6797H217.613V24.9141C217.613 25.1836 217.691 25.4551 217.847 25.7285C218.003 26.002 218.23 26.25 218.527 26.4727C218.827 26.6914 219.179 26.8594 219.581 26.9766L219.159 27.6562C218.663 27.5078 218.24 27.2793 217.888 26.9707C217.54 26.6621 217.283 26.3086 217.115 25.9102C216.935 26.2695 216.677 26.5918 216.341 26.877C216.005 27.1621 215.605 27.375 215.14 27.5156C214.667 27.3672 214.261 27.1484 213.921 26.8594C213.581 26.5664 213.324 26.2383 213.148 25.875C212.98 26.2695 212.72 26.627 212.368 26.9473C212.021 27.2637 211.601 27.5 211.109 27.6562L210.699 26.9766C211.085 26.8516 211.427 26.6719 211.724 26.4375C212.025 26.2031 212.255 25.9492 212.415 25.6758C212.575 25.4023 212.656 25.1484 212.656 24.9141V24.6797H211.003V23.918H214.929V24.6797H213.57V24.8672ZM219.921 29.4492H210.394V28.6992H214.683V27.6328H215.585V28.6992H219.921V29.4492ZM218.691 33.9492H217.765V31.3125H211.425V30.5625H218.691V33.9492ZM231.693 28.8867H230.768V26.8125H228.459V26.0508H230.768V23.5312H231.693V28.8867ZM228.377 24.0469C228.377 25.3164 227.955 26.3809 227.111 27.2402C226.268 28.0957 225.08 28.7188 223.549 29.1094L223.221 28.3477C224.049 28.1484 224.764 27.8789 225.365 27.5391C225.971 27.1953 226.445 26.793 226.789 26.332C227.133 25.8711 227.336 25.3633 227.398 24.8086H223.76V24.0469H228.377ZM231.693 31.875H225.881V33.0938H232.045V33.8555H224.967V31.1719H230.768V30.082H224.943V29.332H231.693V31.875ZM237.814 23.7656C238.568 23.7656 239.22 23.8438 239.771 24C240.326 24.1562 240.751 24.3828 241.048 24.6797C241.345 24.9766 241.494 25.332 241.494 25.7461C241.494 26.1523 241.345 26.502 241.048 26.7949C240.751 27.084 240.326 27.3066 239.771 27.4629C239.22 27.6152 238.568 27.6914 237.814 27.6914C237.06 27.6914 236.406 27.6152 235.851 27.4629C235.296 27.3066 234.869 27.084 234.568 26.7949C234.271 26.502 234.122 26.1523 234.122 25.7461C234.122 25.332 234.271 24.9766 234.568 24.6797C234.869 24.3828 235.296 24.1562 235.851 24C236.406 23.8438 237.06 23.7656 237.814 23.7656ZM237.814 24.5039C237.255 24.5039 236.769 24.5547 236.355 24.6562C235.941 24.7539 235.622 24.8965 235.4 25.084C235.177 25.2715 235.068 25.4922 235.072 25.7461C235.068 25.9961 235.175 26.2129 235.394 26.3965C235.617 26.5762 235.935 26.7148 236.349 26.8125C236.763 26.9102 237.251 26.9609 237.814 26.9648C238.369 26.9609 238.851 26.9102 239.261 26.8125C239.675 26.7148 239.994 26.5762 240.216 26.3965C240.443 26.2129 240.556 25.9961 240.556 25.7461C240.556 25.4922 240.443 25.2715 240.216 25.084C239.994 24.8965 239.675 24.7539 239.261 24.6562C238.847 24.5547 238.365 24.5039 237.814 24.5039ZM241.4 33.8086H234.228V30.3867H241.4V33.8086ZM235.142 33.0586H240.497V31.125H235.142V33.0586ZM242.56 29.3555H233.068V28.5938H242.56V29.3555ZM251.68 28.8633H250.766V23.5312H251.68V28.8633ZM248.563 24.0469C248.563 25.3477 248.13 26.4219 247.262 27.2695C246.399 28.1133 245.176 28.7188 243.594 29.0859L243.255 28.3125C244.559 28.0234 245.581 27.5781 246.319 26.9766C247.061 26.3711 247.473 25.6484 247.555 24.8086H243.782V24.0469H248.563ZM251.68 31.875H245.844V33.1172H252.055V33.8555H244.93V31.1719H250.766V30.0938H244.907V29.3555H251.68V31.875ZM261.68 33.9727H260.754V23.5312H261.68V33.9727ZM256.137 24.3398C256.652 24.3438 257.111 24.4961 257.514 24.7969C257.916 25.0938 258.231 25.5156 258.457 26.0625C258.684 26.6094 258.797 27.2461 258.797 27.9727C258.797 28.6992 258.684 29.3359 258.457 29.8828C258.231 30.4297 257.916 30.8516 257.514 31.1484C257.111 31.4453 256.652 31.5938 256.137 31.5938C255.621 31.5938 255.16 31.4453 254.754 31.1484C254.352 30.8516 254.037 30.4297 253.811 29.8828C253.588 29.3359 253.477 28.6992 253.477 27.9727C253.477 27.2461 253.588 26.6094 253.811 26.0625C254.037 25.5156 254.352 25.0938 254.754 24.7969C255.156 24.4961 255.617 24.3438 256.137 24.3398ZM256.137 25.1602C255.789 25.1641 255.481 25.2832 255.211 25.5176C254.945 25.748 254.738 26.0762 254.59 26.502C254.441 26.9238 254.367 27.4141 254.367 27.9727C254.367 28.5312 254.441 29.0234 254.59 29.4492C254.738 29.8711 254.947 30.1973 255.217 30.4277C255.486 30.6582 255.793 30.7734 256.137 30.7734C256.481 30.7734 256.787 30.6582 257.057 30.4277C257.326 30.1973 257.535 29.8711 257.684 29.4492C257.832 29.0234 257.906 28.5312 257.906 27.9727C257.906 27.4141 257.832 26.9238 257.684 26.502C257.535 26.0762 257.326 25.748 257.057 25.5176C256.791 25.2832 256.484 25.1641 256.137 25.1602Z" fill="#F17676"/>
<path id="Arrow 4_2" d="M269.5 29.5C269.224 29.5 269 29.2761 269 29C269 28.7239 269.224 28.5 269.5 28.5V29V29.5ZM287 29L282 31.8868V26.1132L287 29ZM269.5 29V28.5H282.5V29V29.5H269.5V29Z" fill="#F17676"/>
</g>
<path id="Text_3" d="M9.2475 51.8867H8.32172V49.8125H6.01313V49.0508H8.32172V46.5312H9.2475V51.8867ZM0.774844 51.3477C2.02484 51.0469 3.01117 50.5918 3.73383 49.9824C4.45648 49.3691 4.86273 48.6445 4.95258 47.8086H1.31391V47.0469H5.93109C5.93109 47.8984 5.73773 48.6602 5.35102 49.332C4.9682 50 4.41742 50.5664 3.69867 51.0312C2.97992 51.4961 2.11469 51.8555 1.10297 52.1094L0.774844 51.3477ZM2.4975 52.332H9.2475V54.875H3.435V56.0938H9.59906V56.8555H2.52094V54.1719H8.32172V53.082H2.4975V52.332ZM15.608 46.7656C16.3619 46.7656 17.0142 46.8438 17.565 47C18.1158 47.1562 18.5396 47.3848 18.8365 47.6855C19.1373 47.9824 19.2877 48.3359 19.2877 48.7461C19.2877 49.1523 19.1373 49.502 18.8365 49.7949C18.5396 50.0879 18.1158 50.3105 17.565 50.4629C17.0142 50.6152 16.3619 50.6914 15.608 50.6914C14.8541 50.6914 14.1998 50.6152 13.6451 50.4629C13.0904 50.3105 12.6627 50.0879 12.3619 49.7949C12.065 49.502 11.9166 49.1523 11.9166 48.7461C11.9166 48.3359 12.065 47.9824 12.3619 47.6855C12.6627 47.3848 13.0904 47.1562 13.6451 47C14.1998 46.8438 14.8541 46.7656 15.608 46.7656ZM10.8619 51.5938H20.3541V52.3555H10.8619V51.5938ZM12.022 53.3867H19.1939V56.8086H12.022V53.3867ZM12.8658 48.7461C12.8658 48.9961 12.9752 49.2129 13.1939 49.3965C13.4166 49.5762 13.7349 49.7168 14.149 49.8184C14.563 49.916 15.0494 49.9648 15.608 49.9648C16.1627 49.9648 16.6451 49.916 17.0552 49.8184C17.4693 49.7168 17.7877 49.5762 18.0103 49.3965C18.2369 49.2129 18.3502 48.9961 18.3502 48.7461C18.3502 48.4883 18.2369 48.2676 18.0103 48.084C17.7877 47.8965 17.4693 47.7539 17.0552 47.6562C16.6451 47.5547 16.1627 47.5039 15.608 47.5039C15.0494 47.5039 14.563 47.5547 14.149 47.6562C13.7349 47.7539 13.4166 47.8965 13.1939 48.084C12.9752 48.2676 12.8658 48.4883 12.8658 48.7461ZM18.2916 56.0586V54.125H12.9361V56.0586H18.2916ZM9.25922 70.9727H8.33344V64.7383H5.08734V63.9766H8.33344V60.5312H9.25922V70.9727ZM1.185 61.7031H2.11078V67.668C2.99359 67.6602 3.79242 67.627 4.50727 67.5684C5.22602 67.5059 5.95063 67.3984 6.68109 67.2461L6.79828 68.0078C6.01313 68.1719 5.24164 68.2852 4.48383 68.3477C3.72602 68.4102 2.89203 68.4414 1.98188 68.4414H1.185V61.7031ZM19.4517 70.9727H18.5259V60.5312H19.4517V70.9727ZM11.4713 61.4219H12.3853V64.1758H15.4908V61.4219H16.3931V68.4531H11.4713V61.4219ZM15.4908 67.6797V64.9141H12.3853V67.6797H15.4908Z" fill="#000047"/>
<g id="Frame 19">
<path id="Arrow 2_3" d="M255.5 111.5C255.776 111.5 256 111.276 256 111C256 110.724 255.776 110.5 255.5 110.5V111V111.5ZM176 111L181 113.887V108.113L176 111ZM255.5 111V110.5L180.5 110.5V111V111.5L255.5 111.5V111Z" fill="#0D3B80"/>
<path id="Text_4" d="M272.039 111.086V111.848H262.546V111.086H266.835V109.996C264.837 109.896 263.601 109.141 263.601 107.91C263.601 106.633 265.031 105.848 267.292 105.848C269.531 105.848 270.972 106.633 270.972 107.91C270.972 109.141 269.724 109.896 267.75 109.996V111.086H272.039ZM270.984 114.953V115.727H263.777V112.691H264.703V114.953H270.984ZM267.292 106.598C265.617 106.598 264.539 107.113 264.55 107.91C264.539 108.754 265.617 109.246 267.292 109.246C268.957 109.246 270.035 108.754 270.035 107.91C270.035 107.113 268.957 106.598 267.292 106.598ZM281.434 105.531V110.887H280.508V108.812H278.2V108.051H280.508V105.531H281.434ZM278.118 106.047C278.118 108.637 276.29 110.348 273.29 111.109L272.962 110.348C275.458 109.744 276.952 108.479 277.145 106.809H273.501V106.047H278.118ZM281.434 111.332V113.875H275.622V115.094H281.786V115.855H274.708V113.172H280.508V112.082H274.684V111.332H281.434ZM287.795 105.766C290.056 105.766 291.474 106.492 291.474 107.746C291.474 108.977 290.056 109.691 287.795 109.691C285.533 109.691 284.103 108.977 284.103 107.746C284.103 106.492 285.533 105.766 287.795 105.766ZM287.795 106.504C286.107 106.504 285.041 106.973 285.052 107.746C285.041 108.508 286.107 108.953 287.795 108.965C289.459 108.953 290.537 108.508 290.537 107.746C290.537 106.973 289.459 106.504 287.795 106.504ZM291.381 112.387V115.809H284.209V112.387H291.381ZM285.123 113.125V115.059H290.478V113.125H285.123ZM292.541 110.594V111.355H283.049V110.594H292.541ZM301.901 105.531V110.863H300.987V105.531H301.901ZM298.784 106.047C298.784 108.707 296.897 110.371 293.815 111.086L293.475 110.312C296.083 109.732 297.612 108.484 297.776 106.809H294.003V106.047H298.784ZM301.901 111.355V113.875H296.065V115.117H302.276V115.855H295.151V113.172H300.987V112.094H295.128V111.355H301.901ZM312.141 105.531V115.973H311.215V105.531H312.141ZM306.598 106.34C308.145 106.352 309.258 107.758 309.258 109.973C309.258 112.188 308.145 113.594 306.598 113.594C305.039 113.594 303.938 112.188 303.938 109.973C303.938 107.758 305.039 106.352 306.598 106.34ZM306.598 107.16C305.555 107.172 304.828 108.273 304.828 109.973C304.828 111.672 305.555 112.773 306.598 112.773C307.641 112.773 308.367 111.672 308.367 109.973C308.367 108.273 307.641 107.172 306.598 107.16Z" fill="#0D3B80"/>
<path id="Arrow 4_3" d="M319.5 111.5C319.224 111.5 319 111.276 319 111C319 110.724 319.224 110.5 319.5 110.5V111V111.5ZM399 111L394 113.887V108.113L399 111ZM319.5 111V110.5L394.5 110.5V111V111.5L319.5 111.5V111Z" fill="#0D3B80"/>
</g>
<g id="Frame 21">
<path id="Arrow 2_4" d="M143.5 7.5C143.776 7.5 144 7.27614 144 7C144 6.72386 143.776 6.5 143.5 6.5V7V7.5ZM64 7L69 9.88675V4.11325L64 7ZM143.5 7V6.5L68.5 6.5V7V7.5L143.5 7.5V7Z" fill="#F17676"/>
<path id="Text_5" d="M160.039 7.84766H150.546V7.08594H154.835V5.99609C154.171 5.96484 153.595 5.86133 153.107 5.68555C152.623 5.50977 152.25 5.27148 151.988 4.9707C151.73 4.66992 151.601 4.31641 151.601 3.91016C151.601 3.48828 151.751 3.12305 152.052 2.81445C152.353 2.50195 152.781 2.26367 153.335 2.09961C153.89 1.93164 154.542 1.84766 155.292 1.84766C156.035 1.84766 156.683 1.93164 157.238 2.09961C157.792 2.26367 158.22 2.50195 158.521 2.81445C158.822 3.12305 158.972 3.48828 158.972 3.91016C158.972 4.31641 158.841 4.66992 158.58 4.9707C158.318 5.27148 157.945 5.50977 157.46 5.68555C156.98 5.85742 156.41 5.96094 155.75 5.99609V7.08594H160.039V7.84766ZM158.984 11.7266H151.777V8.69141H152.703V10.9531H158.984V11.7266ZM155.292 2.59766C154.738 2.59766 154.253 2.65234 153.839 2.76172C153.425 2.86719 153.105 3.01953 152.878 3.21875C152.656 3.41797 152.546 3.64844 152.55 3.91016C152.546 4.1875 152.656 4.42773 152.878 4.63086C153.101 4.83008 153.419 4.98242 153.834 5.08789C154.248 5.19336 154.734 5.24609 155.292 5.24609C155.847 5.24609 156.33 5.19336 156.74 5.08789C157.154 4.98242 157.472 4.83008 157.695 4.63086C157.921 4.42773 158.035 4.1875 158.035 3.91016C158.035 3.64844 157.921 3.41797 157.695 3.21875C157.472 3.01953 157.154 2.86719 156.74 2.76172C156.326 2.65234 155.843 2.59766 155.292 2.59766ZM169.434 6.88672H168.508V4.8125H166.2V4.05078H168.508V1.53125H169.434V6.88672ZM166.118 2.04688C166.118 3.31641 165.696 4.38086 164.852 5.24023C164.008 6.0957 162.821 6.71875 161.29 7.10938L160.962 6.34766C161.79 6.14844 162.505 5.87891 163.106 5.53906C163.712 5.19531 164.186 4.79297 164.53 4.33203C164.874 3.87109 165.077 3.36328 165.139 2.80859H161.501V2.04688H166.118ZM169.434 9.875H163.622V11.0938H169.786V11.8555H162.708V9.17188H168.508V8.08203H162.684V7.33203H169.434V9.875ZM175.795 1.76562C176.549 1.76562 177.201 1.84375 177.752 2C178.306 2.15625 178.732 2.38281 179.029 2.67969C179.326 2.97656 179.474 3.33203 179.474 3.74609C179.474 4.15234 179.326 4.50195 179.029 4.79492C178.732 5.08398 178.306 5.30664 177.752 5.46289C177.201 5.61523 176.549 5.69141 175.795 5.69141C175.041 5.69141 174.386 5.61523 173.832 5.46289C173.277 5.30664 172.849 5.08398 172.549 4.79492C172.252 4.50195 172.103 4.15234 172.103 3.74609C172.103 3.33203 172.252 2.97656 172.549 2.67969C172.849 2.38281 173.277 2.15625 173.832 2C174.386 1.84375 175.041 1.76562 175.795 1.76562ZM175.795 2.50391C175.236 2.50391 174.75 2.55469 174.336 2.65625C173.922 2.75391 173.603 2.89648 173.381 3.08398C173.158 3.27148 173.049 3.49219 173.052 3.74609C173.049 3.99609 173.156 4.21289 173.375 4.39648C173.597 4.57617 173.916 4.71484 174.33 4.8125C174.744 4.91016 175.232 4.96094 175.795 4.96484C176.349 4.96094 176.832 4.91016 177.242 4.8125C177.656 4.71484 177.974 4.57617 178.197 4.39648C178.424 4.21289 178.537 3.99609 178.537 3.74609C178.537 3.49219 178.424 3.27148 178.197 3.08398C177.974 2.89648 177.656 2.75391 177.242 2.65625C176.828 2.55469 176.345 2.50391 175.795 2.50391ZM179.381 11.8086H172.209V8.38672H179.381V11.8086ZM173.123 11.0586H178.478V9.125H173.123V11.0586ZM180.541 7.35547H171.049V6.59375H180.541V7.35547ZM189.901 6.86328H188.987V1.53125H189.901V6.86328ZM186.784 2.04688C186.784 3.34766 186.35 4.42188 185.483 5.26953C184.62 6.11328 183.397 6.71875 181.815 7.08594L181.475 6.3125C182.78 6.02344 183.802 5.57812 184.54 4.97656C185.282 4.37109 185.694 3.64844 185.776 2.80859H182.003V2.04688H186.784ZM189.901 9.875H184.065V11.1172H190.276V11.8555H183.151V9.17188H188.987V8.09375H183.128V7.35547H189.901V9.875ZM200.141 11.9727H199.215V1.53125H200.141V11.9727ZM194.598 2.33984C195.113 2.34375 195.572 2.49609 195.975 2.79688C196.377 3.09375 196.691 3.51563 196.918 4.0625C197.145 4.60938 197.258 5.24609 197.258 5.97266C197.258 6.69922 197.145 7.33594 196.918 7.88281C196.691 8.42969 196.377 8.85156 195.975 9.14844C195.572 9.44531 195.113 9.59375 194.598 9.59375C194.082 9.59375 193.621 9.44531 193.215 9.14844C192.812 8.85156 192.498 8.42969 192.271 7.88281C192.049 7.33594 191.938 6.69922 191.938 5.97266C191.938 5.24609 192.049 4.60938 192.271 4.0625C192.498 3.51563 192.812 3.09375 193.215 2.79688C193.617 2.49609 194.078 2.34375 194.598 2.33984ZM194.598 3.16016C194.25 3.16406 193.941 3.2832 193.672 3.51758C193.406 3.74805 193.199 4.07617 193.051 4.50195C192.902 4.92383 192.828 5.41406 192.828 5.97266C192.828 6.53125 192.902 7.02344 193.051 7.44922C193.199 7.87109 193.408 8.19727 193.678 8.42773C193.947 8.6582 194.254 8.77344 194.598 8.77344C194.941 8.77344 195.248 8.6582 195.518 8.42773C195.787 8.19727 195.996 7.87109 196.145 7.44922C196.293 7.02344 196.367 6.53125 196.367 5.97266C196.367 5.41406 196.293 4.92383 196.145 4.50195C195.996 4.07617 195.787 3.74805 195.518 3.51758C195.252 3.2832 194.945 3.16406 194.598 3.16016Z" fill="#F17676"/>
<path id="Arrow 4_4" d="M207.5 7.5C207.224 7.5 207 7.27614 207 7C207 6.72386 207.224 6.5 207.5 6.5V7V7.5ZM287 7L282 9.88675V4.11325L287 7ZM207.5 7V6.5L282.5 6.5V7V7.5L207.5 7.5V7Z" fill="#F17676"/>
</g>
<g id="&#236;&#158;&#144;&#236;&#130;&#176; 6 1">
<g id="&#235;&#160;&#136;&#236;&#157;&#180;&#236;&#150;&#180; 4">
<g id="Group">
<path id="Vector" d="M85.5726 35.2593C87.686 33.8967 90.0055 32.8708 92.4781 32.4968C94.9508 32.1228 97.4129 32.3793 98.8712 34.2334C101.571 37.6638 102.765 38.5508 104.773 39.566C106.781 40.5812 112.873 47.5649 105.84 50.6747C98.8078 53.7845 94.7289 49.0878 90.2696 48.516C85.8103 47.9443 79.9139 49.8412 77.9643 50.6106C75.3912 51.6258 65.1571 53.0204 64.3434 46.6726C63.5298 40.3247 68.8661 37.6638 73.262 37.8561C77.1137 38.0218 81.6417 37.7974 85.5726 35.2646V35.2593Z" fill="white" stroke="#F17676" stroke-linecap="round" stroke-linejoin="round"/>
<path id="Vector_2" d="M100.757 32.2671C100.757 32.2671 106.342 32.2671 105.84 34.6181C105.338 36.9692 101.825 35.1258 101.006 34.3617" stroke="#E76363" stroke-opacity="0.4" stroke-linecap="round" stroke-linejoin="round"/>
<path id="Vector_3" d="M106.342 36.5844C106.342 36.5844 109.544 40.3301 110.923 37.0921C112.302 33.854 105.84 34.6181 105.84 34.6181" stroke="#E76363" stroke-opacity="0.5" stroke-linecap="round" stroke-linejoin="round"/>
<path id="Vector_4" d="M109.544 40.1378C109.544 40.1378 114.315 41.3454 114.252 38.615C114.188 35.8845 111.05 36.8357 111.05 36.8357" stroke="#E76363" stroke-opacity="0.6" stroke-linecap="round" stroke-linejoin="round"/>
<path id="Vector_5" d="M114.188 39.2507C114.188 39.2507 117.327 39.6301 117.453 41.2812C117.58 42.9323 114.188 44.3269 110.738 42.7399" stroke="#E76363" stroke-opacity="0.8" stroke-linecap="round" stroke-linejoin="round"/>
<g id="Vector_6">
<path d="M110.865 44.5834C110.865 44.5834 119.149 41.4095 119.715 46.0422C120.28 50.6748 109.734 52.2618 110.801 47.9444" fill="white"/>
<path d="M110.865 44.5834C110.865 44.5834 119.149 41.4095 119.715 46.0422C120.28 50.6748 109.734 52.2618 110.801 47.9444" stroke="#E76363" stroke-opacity="0.9" stroke-linecap="round" stroke-linejoin="round"/>
</g>
</g>
</g>
</g>
<g id="&#236;&#158;&#144;&#236;&#130;&#176; 6 8">
<g id="&#235;&#160;&#136;&#236;&#157;&#180;&#236;&#150;&#180; 4_2">
<g id="Group_2">
<path id="Vector_7" d="M309.573 35.2593C311.686 33.8967 314.005 32.8708 316.478 32.4968C318.951 32.1228 321.413 32.3793 322.871 34.2334C325.571 37.6638 326.765 38.5508 328.773 39.566C330.781 40.5812 336.873 47.5649 329.84 50.6747C322.808 53.7845 318.729 49.0878 314.27 48.516C309.81 47.9443 303.914 49.8412 301.964 50.6106C299.391 51.6258 289.157 53.0204 288.343 46.6726C287.53 40.3247 292.866 37.6638 297.262 37.8561C301.114 38.0218 305.642 37.7974 309.573 35.2646V35.2593Z" fill="white" stroke="#F17676" stroke-linecap="round" stroke-linejoin="round"/>
<path id="Vector_8" d="M324.757 32.2671C324.757 32.2671 330.342 32.2671 329.84 34.6181C329.338 36.9692 325.825 35.1258 325.006 34.3617" stroke="#E76363" stroke-opacity="0.4" stroke-linecap="round" stroke-linejoin="round"/>
<path id="Vector_9" d="M330.342 36.5844C330.342 36.5844 333.544 40.3301 334.923 37.0921C336.302 33.854 329.84 34.6181 329.84 34.6181" stroke="#E76363" stroke-opacity="0.5" stroke-linecap="round" stroke-linejoin="round"/>
<path id="Vector_10" d="M333.544 40.1378C333.544 40.1378 338.315 41.3454 338.252 38.615C338.188 35.8845 335.05 36.8357 335.05 36.8357" stroke="#E76363" stroke-opacity="0.6" stroke-linecap="round" stroke-linejoin="round"/>
<path id="Vector_11" d="M338.188 39.2507C338.188 39.2507 341.327 39.6301 341.453 41.2812C341.58 42.9323 338.188 44.3269 334.738 42.7399" stroke="#E76363" stroke-opacity="0.8" stroke-linecap="round" stroke-linejoin="round"/>
<g id="Vector_12">
<path d="M334.865 44.5834C334.865 44.5834 343.149 41.4095 343.715 46.0422C344.28 50.6748 333.734 52.2618 334.801 47.9444" fill="white"/>
<path d="M334.865 44.5834C334.865 44.5834 343.149 41.4095 343.715 46.0422C344.28 50.6748 333.734 52.2618 334.801 47.9444" stroke="#E76363" stroke-opacity="0.9" stroke-linecap="round" stroke-linejoin="round"/>
</g>
</g>
</g>
</g>
<g id="&#236;&#158;&#144;&#236;&#130;&#176; 6 6">
<g id="&#235;&#160;&#136;&#236;&#157;&#180;&#236;&#150;&#180; 4_3">
<g id="Group_3">
<path id="Vector_13" d="M197.573 82.7407C199.686 84.1033 202.005 85.1292 204.478 85.5032C206.951 85.8772 209.413 85.6207 210.871 83.7666C213.571 80.3362 214.765 79.4492 216.773 78.434C218.781 77.4188 224.873 70.4351 217.84 67.3253C210.808 64.2155 206.729 68.9122 202.27 69.484C197.81 70.0557 191.914 68.1588 189.964 67.3894C187.391 66.3742 177.157 64.9796 176.343 71.3274C175.53 77.6753 180.866 80.3362 185.262 80.1439C189.114 79.9782 193.642 80.2026 197.573 82.7354V82.7407Z" fill="white" stroke="#0D3B80" stroke-linecap="round" stroke-linejoin="round"/>
<path id="Vector_14" d="M212.757 85.7329C212.757 85.7329 218.342 85.7329 217.84 83.3819C217.338 81.0308 213.825 82.8742 213.006 83.6383" stroke="#0D3B80" stroke-opacity="0.4" stroke-linecap="round" stroke-linejoin="round"/>
<path id="Vector_15" d="M218.342 81.4156C218.342 81.4156 221.544 77.6699 222.923 80.9079C224.302 84.146 217.84 83.3819 217.84 83.3819" stroke="#0D3B80" stroke-opacity="0.5" stroke-linecap="round" stroke-linejoin="round"/>
<path id="Vector_16" d="M221.544 77.8622C221.544 77.8622 226.315 76.6546 226.252 79.385C226.188 82.1155 223.05 81.1643 223.05 81.1643" stroke="#0D3B80" stroke-opacity="0.6" stroke-linecap="round" stroke-linejoin="round"/>
<path id="Vector_17" d="M226.188 78.7493C226.188 78.7493 229.327 78.3699 229.453 76.7188C229.58 75.0677 226.188 73.6731 222.738 75.2601" stroke="#0D3B80" stroke-opacity="0.8" stroke-linecap="round" stroke-linejoin="round"/>
<g id="Vector_18">
<path d="M222.865 73.4166C222.865 73.4166 231.149 76.5905 231.715 71.9578C232.28 67.3252 221.734 65.7382 222.801 70.0556" fill="white"/>
<path d="M222.865 73.4166C222.865 73.4166 231.149 76.5905 231.715 71.9578C232.28 67.3252 221.734 65.7382 222.801 70.0556" stroke="#0D3B80" stroke-opacity="0.9" stroke-linecap="round" stroke-linejoin="round"/>
</g>
</g>
</g>
</g>
<g id="&#236;&#158;&#144;&#236;&#130;&#176; 6 9">
<g id="&#235;&#160;&#136;&#236;&#157;&#180;&#236;&#150;&#180; 4_4">
<g id="Group_4">
<path id="Vector_19" d="M421.573 82.7407C423.686 84.1033 426.005 85.1292 428.478 85.5032C430.951 85.8772 433.413 85.6207 434.871 83.7666C437.571 80.3362 438.765 79.4492 440.773 78.434C442.781 77.4188 448.873 70.4351 441.84 67.3253C434.808 64.2155 430.729 68.9122 426.27 69.484C421.81 70.0557 415.914 68.1588 413.964 67.3894C411.391 66.3742 401.157 64.9796 400.343 71.3274C399.53 77.6753 404.866 80.3362 409.262 80.1439C413.114 79.9782 417.642 80.2026 421.573 82.7354V82.7407Z" fill="white" stroke="#0D3B80" stroke-linecap="round" stroke-linejoin="round"/>
<path id="Vector_20" d="M436.757 85.7329C436.757 85.7329 442.342 85.7329 441.84 83.3819C441.338 81.0308 437.825 82.8742 437.006 83.6383" stroke="#0D3B80" stroke-opacity="0.4" stroke-linecap="round" stroke-linejoin="round"/>
<path id="Vector_21" d="M442.342 81.4156C442.342 81.4156 445.544 77.6699 446.923 80.9079C448.302 84.146 441.84 83.3819 441.84 83.3819" stroke="#0D3B80" stroke-opacity="0.5" stroke-linecap="round" stroke-linejoin="round"/>
<path id="Vector_22" d="M445.544 77.8622C445.544 77.8622 450.315 76.6546 450.252 79.385C450.188 82.1155 447.05 81.1643 447.05 81.1643" stroke="#0D3B80" stroke-opacity="0.6" stroke-linecap="round" stroke-linejoin="round"/>
<path id="Vector_23" d="M450.188 78.7493C450.188 78.7493 453.327 78.3699 453.453 76.7188C453.58 75.0677 450.188 73.6731 446.738 75.2601" stroke="#0D3B80" stroke-opacity="0.8" stroke-linecap="round" stroke-linejoin="round"/>
<g id="Vector_24">
<path d="M446.865 73.4166C446.865 73.4166 455.149 76.5905 455.715 71.9578C456.28 67.3252 445.734 65.7382 446.801 70.0556" fill="white"/>
<path d="M446.865 73.4166C446.865 73.4166 455.149 76.5905 455.715 71.9578C456.28 67.3252 445.734 65.7382 446.801 70.0556" stroke="#0D3B80" stroke-opacity="0.9" stroke-linecap="round" stroke-linejoin="round"/>
</g>
</g>
</g>
</g>
</g>
</svg>
