<svg width="457" height="102" viewBox="0 0 457 102" fill="none" xmlns="http://www.w3.org/2000/svg">
<g id="illust_step_length">
<line id="Line 2" x1="28" y1="29.5" x2="457" y2="29.5" stroke="#D1D1D1"/>
<line id="Line 3" x1="28" y1="56.5" x2="457" y2="56.5" stroke="#D1D1D1"/>
<line id="Line 4" x1="63.5" y1="12" x2="63.5" y2="102" stroke="#D1D1D1"/>
<line id="Line 6" x1="287.5" y1="12" x2="287.5" y2="102" stroke="#D1D1D1"/>
<line id="Line 7" x1="399.5" y1="12" x2="399.5" y2="102" stroke="#D1D1D1"/>
<line id="Line 5" x1="175.5" y1="12" x2="175.5" y2="80" stroke="#D1D1D1"/>
<path id="Arrow 1" d="M33 32L30.1132 37L35.8868 37L33 32ZM33 55L35.8868 50L30.1132 50L33 55ZM32.5 36.5L32.5 50.5L33.5 50.5L33.5 36.5L32.5 36.5Z" fill="#000047"/>
<g id="Frame 18">
<path id="Arrow 2" d="M91 73.5C91.2761 73.5 91.5 73.2761 91.5 73C91.5 72.7239 91.2761 72.5 91 72.5V73.5ZM65 73L70 75.8868V70.1132L65 73ZM91 72.5H69.5V73.5H91V72.5Z" fill="#000047"/>
<path id="Text" d="M106.531 72.8867H105.605V70.8125H103.296V70.0508H105.605V67.5312H106.531V72.8867ZM98.0579 72.3477C99.3079 72.0469 100.294 71.5918 101.017 70.9824C101.74 70.3691 102.146 69.6445 102.236 68.8086H98.597V68.0469H103.214C103.214 68.8984 103.021 69.6602 102.634 70.332C102.251 71 101.7 71.5664 100.982 72.0312C100.263 72.4961 99.3977 72.8555 98.386 73.1094L98.0579 72.3477ZM99.7805 73.332H106.531V75.875H100.718V77.0938H106.882V77.8555H99.804V75.1719H105.605V74.082H99.7805V73.332ZM112.651 67.7656C113.405 67.7656 114.057 67.8438 114.608 68C115.159 68.1562 115.583 68.3848 115.88 68.6855C116.18 68.9824 116.331 69.3359 116.331 69.7461C116.331 70.1523 116.18 70.502 115.88 70.7949C115.583 71.0879 115.159 71.3105 114.608 71.4629C114.057 71.6152 113.405 71.6914 112.651 71.6914C111.897 71.6914 111.243 71.6152 110.688 71.4629C110.133 71.3105 109.706 71.0879 109.405 70.7949C109.108 70.502 108.96 70.1523 108.96 69.7461C108.96 69.3359 109.108 68.9824 109.405 68.6855C109.706 68.3848 110.133 68.1562 110.688 68C111.243 67.8438 111.897 67.7656 112.651 67.7656ZM107.905 72.5938H117.397V73.3555H107.905V72.5938ZM109.065 74.3867H116.237V77.8086H109.065V74.3867ZM109.909 69.7461C109.909 69.9961 110.018 70.2129 110.237 70.3965C110.46 70.5762 110.778 70.7168 111.192 70.8184C111.606 70.916 112.092 70.9648 112.651 70.9648C113.206 70.9648 113.688 70.916 114.098 70.8184C114.512 70.7168 114.831 70.5762 115.053 70.3965C115.28 70.2129 115.393 69.9961 115.393 69.7461C115.393 69.4883 115.28 69.2676 115.053 69.084C114.831 68.8965 114.512 68.7539 114.098 68.6562C113.688 68.5547 113.206 68.5039 112.651 68.5039C112.092 68.5039 111.606 68.5547 111.192 68.6562C110.778 68.7539 110.46 68.8965 110.237 69.084C110.018 69.2676 109.909 69.4883 109.909 69.7461ZM115.335 77.0586V75.125H109.979V77.0586H115.335ZM129.169 72.8633H128.255V67.5312H129.169V72.8633ZM120.744 72.3125C122.048 72.0234 123.07 71.5781 123.808 70.9766C124.55 70.3711 124.962 69.6484 125.044 68.8086H121.271V68.0469H126.052C126.048 69.3477 125.615 70.4199 124.751 71.2637C123.888 72.1074 122.665 72.7148 121.083 73.0859L120.744 72.3125ZM122.396 73.3555H129.169V75.875H123.333V77.1172H129.544V77.8555H122.419V75.1719H128.255V74.0938H122.396V73.3555ZM139.169 77.9727H138.243V67.5312H139.169V77.9727ZM130.966 71.9727C130.966 71.2461 131.079 70.6094 131.305 70.0625C131.532 69.5117 131.846 69.0879 132.249 68.791C132.651 68.4902 133.11 68.3398 133.626 68.3398C134.141 68.3398 134.6 68.4902 135.003 68.791C135.405 69.0879 135.719 69.5117 135.946 70.0625C136.173 70.6094 136.286 71.2461 136.286 71.9727C136.286 72.6992 136.173 73.3379 135.946 73.8887C135.719 74.4355 135.405 74.8574 135.003 75.1543C134.6 75.4473 134.141 75.5938 133.626 75.5938C133.11 75.5938 132.651 75.4473 132.249 75.1543C131.846 74.8574 131.532 74.4355 131.305 73.8887C131.079 73.3379 130.966 72.6992 130.966 71.9727ZM131.856 71.9727C131.856 72.5312 131.93 73.0234 132.079 73.4492C132.227 73.8711 132.436 74.1973 132.706 74.4277C132.975 74.6582 133.282 74.7734 133.626 74.7734C133.973 74.7734 134.28 74.6582 134.546 74.4277C134.815 74.1973 135.024 73.8711 135.173 73.4492C135.321 73.0234 135.395 72.5312 135.395 71.9727C135.395 71.4141 135.321 70.9238 135.173 70.502C135.024 70.0762 134.815 69.7461 134.546 69.5117C134.28 69.2773 133.973 69.1602 133.626 69.1602C133.282 69.1602 132.975 69.2773 132.706 69.5117C132.436 69.7461 132.227 70.0762 132.079 70.502C131.93 70.9277 131.856 71.418 131.856 71.9727Z" fill="#000047"/>
<path id="Arrow 4" d="M147 73.5C146.724 73.5 146.5 73.2761 146.5 73C146.5 72.7239 146.724 72.5 147 72.5V73.5ZM173 73L168 75.8868V70.1132L173 73ZM147 72.5H168.5V73.5H147V72.5Z" fill="#000047"/>
</g>
<path id="Text_2" d="M9.3075 35.8867H8.38172V33.8125H6.07312V33.0508H8.38172V30.5312H9.3075V35.8867ZM0.834844 35.3477C2.08484 35.0469 3.07117 34.5918 3.79383 33.9824C4.51648 33.3691 4.92273 32.6445 5.01258 31.8086H1.37391V31.0469H5.99109C5.99109 31.8984 5.79773 32.6602 5.41102 33.332C5.0282 34 4.47742 34.5664 3.75867 35.0312C3.03992 35.4961 2.17469 35.8555 1.16297 36.1094L0.834844 35.3477ZM2.5575 36.332H9.3075V38.875H3.495V40.0938H9.65906V40.8555H2.58094V38.1719H8.38172V37.082H2.5575V36.332ZM15.548 30.7656C16.3019 30.7656 16.9542 30.8438 17.505 31C18.0558 31.1562 18.4796 31.3848 18.7765 31.6855C19.0773 31.9824 19.2277 32.3359 19.2277 32.7461C19.2277 33.1523 19.0773 33.502 18.7765 33.7949C18.4796 34.0879 18.0558 34.3105 17.505 34.4629C16.9542 34.6152 16.3019 34.6914 15.548 34.6914C14.7941 34.6914 14.1398 34.6152 13.5851 34.4629C13.0304 34.3105 12.6027 34.0879 12.3019 33.7949C12.005 33.502 11.8566 33.1523 11.8566 32.7461C11.8566 32.3359 12.005 31.9824 12.3019 31.6855C12.6027 31.3848 13.0304 31.1562 13.5851 31C14.1398 30.8438 14.7941 30.7656 15.548 30.7656ZM10.8019 35.5938H20.2941V36.3555H10.8019V35.5938ZM11.962 37.3867H19.1339V40.8086H11.962V37.3867ZM12.8058 32.7461C12.8058 32.9961 12.9152 33.2129 13.1339 33.3965C13.3566 33.5762 13.6749 33.7168 14.089 33.8184C14.503 33.916 14.9894 33.9648 15.548 33.9648C16.1027 33.9648 16.5851 33.916 16.9952 33.8184C17.4093 33.7168 17.7277 33.5762 17.9503 33.3965C18.1769 33.2129 18.2902 32.9961 18.2902 32.7461C18.2902 32.4883 18.1769 32.2676 17.9503 32.084C17.7277 31.8965 17.4093 31.7539 16.9952 31.6562C16.5851 31.5547 16.1027 31.5039 15.548 31.5039C14.9894 31.5039 14.503 31.5547 14.089 31.6562C13.6749 31.7539 13.3566 31.8965 13.1339 32.084C12.9152 32.2676 12.8058 32.4883 12.8058 32.7461ZM18.2316 40.0586V38.125H12.8761V40.0586H18.2316ZM9.31922 54.9727H8.39344V48.7383H5.14734V47.9766H8.39344V44.5312H9.31922V54.9727ZM1.245 45.7031H2.17078V51.668C3.05359 51.6602 3.85242 51.627 4.56727 51.5684C5.28602 51.5059 6.01062 51.3984 6.74109 51.2461L6.85828 52.0078C6.07312 52.1719 5.30164 52.2852 4.54383 52.3477C3.78602 52.4102 2.95203 52.4414 2.04187 52.4414H1.245V45.7031ZM19.3917 54.9727H18.4659V44.5312H19.3917V54.9727ZM11.4113 45.4219H12.3253V48.1758H15.4308V45.4219H16.3331V52.4531H11.4113V45.4219ZM15.4308 51.6797V48.9141H12.3253V51.6797H15.4308Z" fill="#000047"/>
<g id="Frame 19">
<path id="Arrow 2_2" d="M141.5 95.5C141.776 95.5 142 95.2761 142 95C142 94.7239 141.776 94.5 141.5 94.5V95.5ZM65 95L70 97.8868V92.1132L65 95ZM141.5 94.5L69.5 94.5V95.5L141.5 95.5V94.5Z" fill="#000047"/>
<path id="Text_3" d="M158.147 95.0859V95.8477H148.655V95.0859H152.944V93.9961C150.946 93.8965 149.709 93.1406 149.709 91.9102C149.709 90.6328 151.139 89.8477 153.401 89.8477C155.639 89.8477 157.08 90.6328 157.08 91.9102C157.08 93.1406 155.832 93.8965 153.858 93.9961V95.0859H158.147ZM157.092 98.9531V99.7266H149.885V96.6914H150.811V98.9531H157.092ZM153.401 90.5977C151.725 90.5977 150.647 91.1133 150.659 91.9102C150.647 92.7539 151.725 93.2461 153.401 93.2461C155.065 93.2461 156.143 92.7539 156.143 91.9102C156.143 91.1133 155.065 90.5977 153.401 90.5977ZM167.542 89.5312V94.8867H166.617V92.8125H164.308V92.0508H166.617V89.5312H167.542ZM164.226 90.0469C164.226 92.6367 162.398 94.3477 159.398 95.1094L159.07 94.3477C161.566 93.7441 163.06 92.4785 163.253 90.8086H159.609V90.0469H164.226ZM167.542 95.332V97.875H161.73V99.0938H167.894V99.8555H160.816V97.1719H166.617V96.082H160.792V95.332H167.542ZM173.903 89.7656C176.165 89.7656 177.583 90.4922 177.583 91.7461C177.583 92.9766 176.165 93.6914 173.903 93.6914C171.641 93.6914 170.212 92.9766 170.212 91.7461C170.212 90.4922 171.641 89.7656 173.903 89.7656ZM173.903 90.5039C172.215 90.5039 171.149 90.9727 171.161 91.7461C171.149 92.5078 172.215 92.9531 173.903 92.9648C175.567 92.9531 176.645 92.5078 176.645 91.7461C176.645 90.9727 175.567 90.5039 173.903 90.5039ZM177.489 96.3867V99.8086H170.317V96.3867H177.489ZM171.231 97.125V99.0586H176.587V97.125H171.231ZM178.649 94.5938V95.3555H169.157V94.5938H178.649ZM190.901 89.5312V94.8633H189.987V89.5312H190.901ZM187.784 90.0469C187.784 92.707 185.897 94.3711 182.815 95.0859L182.475 94.3125C185.083 93.7324 186.612 92.4844 186.776 90.8086H183.003V90.0469H187.784ZM190.901 95.3555V97.875H185.065V99.1172H191.276V99.8555H184.151V97.1719H189.987V96.0938H184.128V95.3555H190.901ZM201.141 89.5312V99.9727H200.215V89.5312H201.141ZM195.598 90.3398C197.145 90.3516 198.258 91.7578 198.258 93.9727C198.258 96.1875 197.145 97.5938 195.598 97.5938C194.039 97.5938 192.938 96.1875 192.938 93.9727C192.938 91.7578 194.039 90.3516 195.598 90.3398ZM195.598 91.1602C194.555 91.1719 193.828 92.2734 193.828 93.9727C193.828 95.6719 194.555 96.7734 195.598 96.7734C196.641 96.7734 197.367 95.6719 197.367 93.9727C197.367 92.2734 196.641 91.1719 195.598 91.1602Z" fill="#000047"/>
<path id="Arrow 4_2" d="M208.5 95.5C208.224 95.5 208 95.2761 208 95C208 94.7239 208.224 94.5 208.5 94.5V95.5ZM285 95L280 97.8868V92.1132L285 95ZM208.5 94.5L280.5 94.5V95.5L208.5 95.5V94.5Z" fill="#000047"/>
</g>
<g id="&#236;&#158;&#144;&#236;&#130;&#176; 6 1">
<g id="&#235;&#160;&#136;&#236;&#157;&#180;&#236;&#150;&#180; 4">
<g id="Group">
<path id="Vector" d="M85.5726 19.2593C87.686 17.8967 90.0055 16.8708 92.4781 16.4968C94.9508 16.1228 97.4129 16.3793 98.8712 18.2334C101.571 21.6638 102.765 22.5508 104.773 23.566C106.781 24.5812 112.873 31.5649 105.84 34.6747C98.8078 37.7845 94.7289 33.0878 90.2696 32.516C85.8103 31.9443 79.9139 33.8412 77.9643 34.6106C75.3912 35.6258 65.1571 37.0204 64.3434 30.6726C63.5298 24.3247 68.8661 21.6638 73.262 21.8561C77.1137 22.0218 81.6417 21.7974 85.5726 19.2646V19.2593Z" fill="white" stroke="#F17676" stroke-linecap="round" stroke-linejoin="round"/>
<path id="Vector_2" d="M100.757 16.2671C100.757 16.2671 106.342 16.2671 105.84 18.6181C105.338 20.9692 101.825 19.1258 101.006 18.3617" stroke="#E76363" stroke-opacity="0.4" stroke-linecap="round" stroke-linejoin="round"/>
<path id="Vector_3" d="M106.342 20.5844C106.342 20.5844 109.544 24.3301 110.923 21.0921C112.302 17.854 105.84 18.6181 105.84 18.6181" stroke="#E76363" stroke-opacity="0.5" stroke-linecap="round" stroke-linejoin="round"/>
<path id="Vector_4" d="M109.544 24.1378C109.544 24.1378 114.315 25.3454 114.252 22.615C114.188 19.8845 111.05 20.8357 111.05 20.8357" stroke="#E76363" stroke-opacity="0.6" stroke-linecap="round" stroke-linejoin="round"/>
<path id="Vector_5" d="M114.188 23.251C114.188 23.251 117.327 23.6304 117.453 25.2814C117.58 26.9325 114.188 28.3271 110.738 26.7402" stroke="#E76363" stroke-opacity="0.8" stroke-linecap="round" stroke-linejoin="round"/>
<g id="Vector_6">
<path d="M110.865 28.5832C110.865 28.5832 119.149 25.4093 119.715 30.0419C120.28 34.6746 109.734 36.2615 110.801 31.9441" fill="white"/>
<path d="M110.865 28.5832C110.865 28.5832 119.149 25.4093 119.715 30.0419C120.28 34.6746 109.734 36.2615 110.801 31.9441" stroke="#E76363" stroke-opacity="0.9" stroke-linecap="round" stroke-linejoin="round"/>
</g>
</g>
</g>
</g>
<g id="&#236;&#158;&#144;&#236;&#130;&#176; 6 8">
<g id="&#235;&#160;&#136;&#236;&#157;&#180;&#236;&#150;&#180; 4_2">
<g id="Group_2">
<path id="Vector_7" d="M309.573 19.2593C311.686 17.8967 314.005 16.8708 316.478 16.4968C318.951 16.1228 321.413 16.3793 322.871 18.2334C325.571 21.6638 326.765 22.5508 328.773 23.566C330.781 24.5812 336.873 31.5649 329.84 34.6747C322.808 37.7845 318.729 33.0878 314.27 32.516C309.81 31.9443 303.914 33.8412 301.964 34.6106C299.391 35.6258 289.157 37.0204 288.343 30.6726C287.53 24.3247 292.866 21.6638 297.262 21.8561C301.114 22.0218 305.642 21.7974 309.573 19.2646V19.2593Z" fill="white" stroke="#F17676" stroke-linecap="round" stroke-linejoin="round"/>
<path id="Vector_8" d="M324.757 16.2671C324.757 16.2671 330.342 16.2671 329.84 18.6181C329.338 20.9692 325.825 19.1258 325.006 18.3617" stroke="#E76363" stroke-opacity="0.4" stroke-linecap="round" stroke-linejoin="round"/>
<path id="Vector_9" d="M330.342 20.5844C330.342 20.5844 333.544 24.3301 334.923 21.0921C336.302 17.854 329.84 18.6181 329.84 18.6181" stroke="#E76363" stroke-opacity="0.5" stroke-linecap="round" stroke-linejoin="round"/>
<path id="Vector_10" d="M333.544 24.1378C333.544 24.1378 338.315 25.3454 338.252 22.615C338.188 19.8845 335.05 20.8357 335.05 20.8357" stroke="#E76363" stroke-opacity="0.6" stroke-linecap="round" stroke-linejoin="round"/>
<path id="Vector_11" d="M338.188 23.251C338.188 23.251 341.327 23.6304 341.453 25.2814C341.58 26.9325 338.188 28.3271 334.738 26.7402" stroke="#E76363" stroke-opacity="0.8" stroke-linecap="round" stroke-linejoin="round"/>
<g id="Vector_12">
<path d="M334.865 28.5832C334.865 28.5832 343.149 25.4093 343.715 30.0419C344.28 34.6746 333.734 36.2615 334.801 31.9441" fill="white"/>
<path d="M334.865 28.5832C334.865 28.5832 343.149 25.4093 343.715 30.0419C344.28 34.6746 333.734 36.2615 334.801 31.9441" stroke="#E76363" stroke-opacity="0.9" stroke-linecap="round" stroke-linejoin="round"/>
</g>
</g>
</g>
</g>
<g id="&#236;&#158;&#144;&#236;&#130;&#176; 6 6">
<g id="&#235;&#160;&#136;&#236;&#157;&#180;&#236;&#150;&#180; 4_3">
<g id="Group_3">
<path id="Vector_13" d="M197.573 66.7407C199.686 68.1033 202.005 69.1292 204.478 69.5032C206.951 69.8772 209.413 69.6207 210.871 67.7666C213.571 64.3362 214.765 63.4492 216.773 62.434C218.781 61.4188 224.873 54.4351 217.84 51.3253C210.808 48.2155 206.729 52.9122 202.27 53.484C197.81 54.0557 191.914 52.1588 189.964 51.3894C187.391 50.3742 177.157 48.9796 176.343 55.3274C175.53 61.6753 180.866 64.3362 185.262 64.1439C189.114 63.9782 193.642 64.2026 197.573 66.7354V66.7407Z" fill="white" stroke="#0D3B80" stroke-linecap="round" stroke-linejoin="round"/>
<path id="Vector_14" d="M212.757 69.7329C212.757 69.7329 218.342 69.7329 217.84 67.3819C217.338 65.0308 213.825 66.8742 213.006 67.6383" stroke="#0D3B80" stroke-opacity="0.4" stroke-linecap="round" stroke-linejoin="round"/>
<path id="Vector_15" d="M218.342 65.4156C218.342 65.4156 221.544 61.6699 222.923 64.9079C224.302 68.146 217.84 67.3819 217.84 67.3819" stroke="#0D3B80" stroke-opacity="0.5" stroke-linecap="round" stroke-linejoin="round"/>
<path id="Vector_16" d="M221.544 61.8622C221.544 61.8622 226.315 60.6546 226.252 63.385C226.188 66.1155 223.05 65.1643 223.05 65.1643" stroke="#0D3B80" stroke-opacity="0.6" stroke-linecap="round" stroke-linejoin="round"/>
<path id="Vector_17" d="M226.188 62.749C226.188 62.749 229.327 62.3696 229.453 60.7186C229.58 59.0675 226.188 57.6729 222.738 59.2598" stroke="#0D3B80" stroke-opacity="0.8" stroke-linecap="round" stroke-linejoin="round"/>
<g id="Vector_18">
<path d="M222.865 57.4168C222.865 57.4168 231.149 60.5907 231.715 55.9581C232.28 51.3254 221.734 49.7385 222.801 54.0559" fill="white"/>
<path d="M222.865 57.4168C222.865 57.4168 231.149 60.5907 231.715 55.9581C232.28 51.3254 221.734 49.7385 222.801 54.0559" stroke="#0D3B80" stroke-opacity="0.9" stroke-linecap="round" stroke-linejoin="round"/>
</g>
</g>
</g>
</g>
<g id="&#236;&#158;&#144;&#236;&#130;&#176; 6 9">
<g id="&#235;&#160;&#136;&#236;&#157;&#180;&#236;&#150;&#180; 4_4">
<g id="Group_4">
<path id="Vector_19" d="M421.573 66.7407C423.686 68.1033 426.005 69.1292 428.478 69.5032C430.951 69.8772 433.413 69.6207 434.871 67.7666C437.571 64.3362 438.765 63.4492 440.773 62.434C442.781 61.4188 448.873 54.4351 441.84 51.3253C434.808 48.2155 430.729 52.9122 426.27 53.484C421.81 54.0557 415.914 52.1588 413.964 51.3894C411.391 50.3742 401.157 48.9796 400.343 55.3274C399.53 61.6753 404.866 64.3362 409.262 64.1439C413.114 63.9782 417.642 64.2026 421.573 66.7354V66.7407Z" fill="white" stroke="#0D3B80" stroke-linecap="round" stroke-linejoin="round"/>
<path id="Vector_20" d="M436.757 69.7329C436.757 69.7329 442.342 69.7329 441.84 67.3819C441.338 65.0308 437.825 66.8742 437.006 67.6383" stroke="#0D3B80" stroke-opacity="0.4" stroke-linecap="round" stroke-linejoin="round"/>
<path id="Vector_21" d="M442.342 65.4156C442.342 65.4156 445.544 61.6699 446.923 64.9079C448.302 68.146 441.84 67.3819 441.84 67.3819" stroke="#0D3B80" stroke-opacity="0.5" stroke-linecap="round" stroke-linejoin="round"/>
<path id="Vector_22" d="M445.544 61.8622C445.544 61.8622 450.315 60.6546 450.252 63.385C450.188 66.1155 447.05 65.1643 447.05 65.1643" stroke="#0D3B80" stroke-opacity="0.6" stroke-linecap="round" stroke-linejoin="round"/>
<path id="Vector_23" d="M450.188 62.749C450.188 62.749 453.327 62.3696 453.453 60.7186C453.58 59.0675 450.188 57.6729 446.738 59.2598" stroke="#0D3B80" stroke-opacity="0.8" stroke-linecap="round" stroke-linejoin="round"/>
<g id="Vector_24">
<path d="M446.865 57.4168C446.865 57.4168 455.149 60.5907 455.715 55.9581C456.28 51.3254 445.734 49.7385 446.801 54.0559" fill="white"/>
<path d="M446.865 57.4168C446.865 57.4168 455.149 60.5907 455.715 55.9581C456.28 51.3254 445.734 49.7385 446.801 54.0559" stroke="#0D3B80" stroke-opacity="0.9" stroke-linecap="round" stroke-linejoin="round"/>
</g>
</g>
</g>
</g>
</g>
</svg>
